<svg xmlns="http://www.w3.org/2000/svg" width="1200" height="720" viewBox="0 0 1200 720">
<rect x="0" y="0" width="1200" height="720" fill="#FFFFFF" />
<text x="600.0" y="40.0" fill="#0B1B34" font-size="32" font-family="Arial, Helvetica, sans-serif" text-anchor="middle">Milestone Timeline</text>
<text x="600.0" y="80.0" fill="#53627C" font-size="20" font-family="Arial, Helvetica, sans-serif" text-anchor="middle">Gantt view across tracks</text>
<line x1="160.0" y1="120.0" x2="160.0" y2="480.0" stroke="#CBD2E1" stroke-width="1.0" stroke-dasharray="6,8" />
<text x="160.0" y="100.0" fill="#53627C" font-size="16" font-family="Arial, Helvetica, sans-serif" text-anchor="middle">Month 1</text>
<line x1="334.5" y1="120.0" x2="334.5" y2="480.0" stroke="#CBD2E1" stroke-width="1.0" stroke-dasharray="6,8" />
<text x="334.5" y="100.0" fill="#53627C" font-size="16" font-family="Arial, Helvetica, sans-serif" text-anchor="middle">Month 3 (M1)</text>
<line x1="596.4" y1="120.0" x2="596.4" y2="480.0" stroke="#CBD2E1" stroke-width="1.0" stroke-dasharray="6,8" />
<text x="596.4" y="100.0" fill="#53627C" font-size="16" font-family="Arial, Helvetica, sans-serif" text-anchor="middle">Month 6 (M2)</text>
<line x1="1120.0" y1="120.0" x2="1120.0" y2="480.0" stroke="#CBD2E1" stroke-width="1.0" stroke-dasharray="6,8" />
<text x="1120.0" y="100.0" fill="#53627C" font-size="16" font-family="Arial, Helvetica, sans-serif" text-anchor="middle">Month 12 (M3)</text>
<text x="140.0" y="160.0" fill="#1F77B4" font-size="18" font-family="Arial, Helvetica, sans-serif" text-anchor="end">Track 1: Core Intelligence</text>
<rect x="160.0" y="140.0" width="261.8" height="60.0" rx="10.0" ry="10.0" fill="#d2e3f0" fill-opacity="1.00" stroke="#1F77B4" stroke-width="2.0" />
<text x="290.9" y="150.0" fill="#0B1B34" font-size="16" font-family="Arial, Helvetica, sans-serif" text-anchor="middle">Benchmark 1.1 (1-4)</text>
<rect x="421.8" y="140.0" width="261.8" height="60.0" rx="10.0" ry="10.0" fill="#d2e3f0" fill-opacity="1.00" stroke="#1F77B4" stroke-width="2.0" />
<text x="552.7" y="150.0" fill="#0B1B34" font-size="16" font-family="Arial, Helvetica, sans-serif" text-anchor="middle">Benchmark 1.2 (4-7)</text>
<rect x="509.1" y="140.0" width="349.1" height="60.0" rx="10.0" ry="10.0" fill="#d2e3f0" fill-opacity="1.00" stroke="#1F77B4" stroke-width="2.0" />
<text x="683.6" y="150.0" fill="#0B1B34" font-size="16" font-family="Arial, Helvetica, sans-serif" text-anchor="middle">Benchmark 1.3 (5-9)</text>
<rect x="858.2" y="140.0" width="261.8" height="60.0" rx="10.0" ry="10.0" fill="#d2e3f0" fill-opacity="1.00" stroke="#1F77B4" stroke-width="2.0" />
<text x="989.1" y="150.0" fill="#0B1B34" font-size="16" font-family="Arial, Helvetica, sans-serif" text-anchor="middle">Benchmark 1.4 (9-12)</text>
<text x="140.0" y="240.0" fill="#FF7F0E" font-size="18" font-family="Arial, Helvetica, sans-serif" text-anchor="end">Track 2: Human Interface</text>
<rect x="160.0" y="220.0" width="436.4" height="60.0" rx="10.0" ry="10.0" fill="#ffe5ce" fill-opacity="1.00" stroke="#FF7F0E" stroke-width="2.0" />
<text x="378.2" y="230.0" fill="#0B1B34" font-size="16" font-family="Arial, Helvetica, sans-serif" text-anchor="middle">Benchmark 2.1 (1-6)</text>
<rect x="421.8" y="220.0" width="349.1" height="60.0" rx="10.0" ry="10.0" fill="#ffe5ce" fill-opacity="1.00" stroke="#FF7F0E" stroke-width="2.0" />
<text x="596.4" y="230.0" fill="#0B1B34" font-size="16" font-family="Arial, Helvetica, sans-serif" text-anchor="middle">Benchmark 2.2 (4-8)</text>
<rect x="770.9" y="220.0" width="349.1" height="60.0" rx="10.0" ry="10.0" fill="#ffe5ce" fill-opacity="1.00" stroke="#FF7F0E" stroke-width="2.0" />
<text x="945.5" y="230.0" fill="#0B1B34" font-size="16" font-family="Arial, Helvetica, sans-serif" text-anchor="middle">Benchmark 2.3 (8-12)</text>
<text x="140.0" y="320.0" fill="#2CA02C" font-size="18" font-family="Arial, Helvetica, sans-serif" text-anchor="end">Track 3: Ecosystem &amp; Ethics</text>
<rect x="247.3" y="300.0" width="523.6" height="60.0" rx="10.0" ry="10.0" fill="#d4ecd4" fill-opacity="1.00" stroke="#2CA02C" stroke-width="2.0" />
<text x="509.1" y="310.0" fill="#0B1B34" font-size="16" font-family="Arial, Helvetica, sans-serif" text-anchor="middle">Benchmark 3.1 (2-8)</text>
<rect x="770.9" y="300.0" width="349.1" height="60.0" rx="10.0" ry="10.0" fill="#d4ecd4" fill-opacity="1.00" stroke="#2CA02C" stroke-width="2.0" />
<text x="945.5" y="310.0" fill="#0B1B34" font-size="16" font-family="Arial, Helvetica, sans-serif" text-anchor="middle">Benchmark 3.2 (8-12)</text>
<rect x="596.4" y="300.0" width="523.6" height="60.0" rx="10.0" ry="10.0" fill="#d4ecd4" fill-opacity="1.00" stroke="#2CA02C" stroke-width="2.0" />
<text x="858.2" y="310.0" fill="#0B1B34" font-size="16" font-family="Arial, Helvetica, sans-serif" text-anchor="middle">Benchmark 3.3 (6-12)</text>
<text x="140.0" y="400.0" fill="#9467BD" font-size="18" font-family="Arial, Helvetica, sans-serif" text-anchor="end">Track 4: Maintenance &amp; Operations</text>
<rect x="160.0" y="380.0" width="698.2" height="60.0" rx="10.0" ry="10.0" fill="#e9e0f1" fill-opacity="1.00" stroke="#9467BD" stroke-width="2.0" />
<text x="509.1" y="390.0" fill="#0B1B34" font-size="16" font-family="Arial, Helvetica, sans-serif" text-anchor="middle">Benchmark 4.1 (1-9)</text>
<rect x="334.5" y="380.0" width="785.5" height="60.0" rx="10.0" ry="10.0" fill="#e9e0f1" fill-opacity="1.00" stroke="#9467BD" stroke-width="2.0" />
<text x="727.3" y="390.0" fill="#0B1B34" font-size="16" font-family="Arial, Helvetica, sans-serif" text-anchor="middle">Benchmark 4.2 (3-12)</text>
<polygon points="334.5,458.0 346.5,470.0 334.5,482.0 322.5,470.0" fill="#D62728" />
<text x="334.5" y="490.0" fill="#D62728" font-size="16" font-family="Arial, Helvetica, sans-serif" text-anchor="middle">M1 Gate</text>
<polygon points="596.4,458.0 608.4,470.0 596.4,482.0 584.4,470.0" fill="#D62728" />
<text x="596.4" y="490.0" fill="#D62728" font-size="16" font-family="Arial, Helvetica, sans-serif" text-anchor="middle">M2 Gate</text>
<polygon points="1120.0,458.0 1132.0,470.0 1120.0,482.0 1108.0,470.0" fill="#D62728" />
<text x="1120.0" y="490.0" fill="#D62728" font-size="16" font-family="Arial, Helvetica, sans-serif" text-anchor="middle">M3 Gate</text>
</svg>
